<svg id="Слой_1" data-name="Слой 1" xmlns="http://www.w3.org/2000/svg" viewBox="0 0 2726.7 1128.68"><defs><style>.cls-1{fill:#f8fbff;}.cls-2{fill:#e7f1fb;}.cls-3{fill:#deedff;}.cls-4{fill:#f99746;}.cls-5{fill:#ffb278;}.cls-6{fill:#82b378;}.cls-7{fill:#a8d29f;}.cls-8{fill:#f1a34f;}.cls-9{fill:#ffb973;}.cls-10{fill:#d86713;}.cls-11{fill:#d1a586;}.cls-12{fill:#e5bd9e;}.cls-13{fill:#dfb697;}.cls-14{fill:#a0795f;}.cls-15{fill:#6bb7bf;}.cls-16{fill:#8ad8db;}.cls-17{fill:#ed9f4a;}.cls-18{fill:#ffb27d;}.cls-19{fill:#c45446;}.cls-20{fill:#e37970;}.cls-21{fill:#1c468a;}.cls-22{fill:#c65447;}.cls-23{fill:#163560;}.cls-24{fill:#f4a269;}.cls-25{fill:#599dad;}.cls-26{fill:#e2915a;}.cls-27{fill:#233862;}.cls-28{fill:#2b478b;}.cls-29{fill:#e9f3fe;}.cls-30{fill:#22407a;}.cls-31{fill:#fff;}.cls-32{fill:#d9e9f9;}.cls-33{fill:#ba4c43;}.cls-34{fill:#aa413e;}.cls-35{fill:#b5453c;}.cls-36{fill:#ed975d;}.cls-37{fill:#699dee;}.cls-38{fill:#4a75cb;}.cls-39{fill:#e7f1fd;}.cls-40{fill:#ed7d2b;}.cls-41{fill:#c69d7f;}.cls-42{fill:#e0b594;}.cls-43{fill:#2e3552;}</style></defs><title>5237</title><path class="cls-1" d="M2885.29,1513.42H303.61s-2.23-21.31-2.89-55.74c-.37-20.06-.24-44.58,1.2-71.91.13-2.23.25-4.5.39-6.77.75-12.53,1.77-25.63,3.13-39.12.13-1.19.25-2.4.38-3.6,1.5-14.11,3.35-28.76,5.66-43.83,1.89-12.23,4.06-24.75,6.6-37.47.17-.89.35-1.79.53-2.68,1.31-6.48,2.72-13,4.22-19.56.58-2.57,1.19-5.15,1.8-7.74,1.2-5,2.46-10.13,3.78-15.2q4.81-18.69,10.78-37.58c.4-1.27.81-2.57,1.21-3.87q2.72-8.4,5.66-16.85,4.5-12.84,9.58-25.67c2.11-5.36,4.33-10.7,6.61-16.06,21.65-50.63,50.65-100.2,89.38-144.57C540.32,863.54,680,789.09,899.26,791.27c44.07.43,85-.72,123.25-3.25h.06q17.43-1.15,34.12-2.69h.11C1310,762,1436.92,675.2,1552.27,590.51l12.39-9.11c40.35-29.72,79.78-58.87,123.29-84.61q16.69-9.9,34.31-19.06c72.13-37.39,157.48-64.54,275.43-70.39a292,292,0,0,1,33.65.22c4.18.26,8.31.63,12.4,1.08,45.86,5,86.42,21.35,120.41,47.17,88.44,67.18,132.38,198.61,109.38,362.69-15.57,111.12,19.6,171.37,79.85,210.75C2520.15,1138.3,2879,1087.53,2885.29,1513.42Z" transform="translate(-229.11 -406.96)"/><polygon class="cls-2" points="1408.03 681.25 1408.03 630.52 1396.14 630.52 1396.14 543.28 1332.36 543.28 1332.36 630.52 1272.74 630.52 1272.74 488.37 1206.94 488.37 1206.94 580.64 1191.94 580.64 1191.94 470.48 1126.15 470.48 1126.15 677.03 1042.94 677.03 1042.94 797.48 1011.85 797.48 1011.85 743.86 940.43 743.86 940.43 775.57 899.43 775.57 899.43 633.59 848.78 633.59 848.78 738.68 798.13 738.68 798.13 1123.75 848.78 1123.75 892.19 1123.75 899.43 1123.75 940.43 1123.75 963.61 1123.75 1000.73 1123.75 1011.85 1123.75 1042.94 1123.75 1072.14 1123.75 1126.15 1123.75 1142.69 1123.75 1175.59 1123.75 1191.94 1123.75 1206.94 1123.75 1241.38 1123.75 1264.83 1123.75 1272.74 1123.75 1332.36 1123.75 1395.07 1123.75 1396.14 1123.75 1408.03 1123.75 1458.85 1123.75 1458.85 681.25 1408.03 681.25"/><polygon class="cls-2" points="2122.13 855.63 2122.13 1123.74 1483.65 1123.74 1483.65 890.42 1532.6 890.42 1532.6 826.75 1581.54 826.75 1581.54 912.78 1621.17 912.78 1621.17 893.56 1690.17 893.56 1690.17 926.05 1720.22 926.05 1720.22 853.07 1800.63 853.07 1800.63 727.92 1864.21 727.92 1864.21 794.66 1878.71 794.66 1878.71 738.76 1942.29 738.76 1942.29 824.89 1999.9 824.89 1999.9 772.03 2061.54 772.03 2061.54 824.89 2073.03 824.89 2073.03 855.63 2122.13 855.63"/><polygon class="cls-2" points="804.61 750.52 804.61 1122.39 222.52 1122.39 222.52 798.79 267.14 798.79 267.14 710.48 311.76 710.48 311.76 829.79 347.88 829.79 347.88 803.13 410.8 803.13 410.8 848.2 438.19 848.2 438.19 746.99 511.5 746.99 511.5 573.41 569.46 573.41 569.46 665.98 582.68 665.98 582.68 588.43 640.64 588.43 640.64 707.89 693.18 707.89 693.18 634.58 749.37 634.58 749.37 707.89 759.84 707.89 759.84 750.52 804.61 750.52"/><path class="cls-3" d="M1722.25,477.73V1528.27H1688V496.79Q1704.65,486.89,1722.25,477.73Z" transform="translate(-229.11 -406.96)"/><polygon class="cls-3" points="827.7 378.36 827.7 1106.46 827.7 1121.31 793.4 1121.31 793.4 1106.46 793.4 381.06 827.7 378.36"/><path class="cls-4" d="M1564.66,581.4v81.67c0,10.28-2.6,18.66-5.78,18.66h-.83c-3.18,0-5.78-8.38-5.78-18.66V590.51Z" transform="translate(-229.11 -406.96)"/><path class="cls-4" d="M1555.24,648.78c-45.14,0-81.73,38.7-81.73,86.43H1637C1637,687.48,1600.38,648.78,1555.24,648.78Z" transform="translate(-229.11 -406.96)"/><path class="cls-5" d="M1561.75,649.84a33.12,33.12,0,0,0-7.18-.79c-29.41,0-53.25,38.58-53.25,86.16h14.36C1515.68,691.56,1535.74,655.51,1561.75,649.84Z" transform="translate(-229.11 -406.96)"/><path class="cls-4" d="M2043.74,408.64V643.32c0,2.06,0,4.08-.08,6-.44,18.3-2.84,32.37-5.72,32.37h-.82c-2.66,0-4.92-12.11-5.58-28.46-.06-1.35-.11-2.73-.13-4.13,0-.1,0-.19,0-.3q-.06-2.7-.06-5.52V407.56C2035.52,407.82,2039.65,408.19,2043.74,408.64Z" transform="translate(-229.11 -406.96)"/><path class="cls-4" d="M2034.31,648.78c-45.14,0-81.73,38.7-81.73,86.43h163.47C2116.05,687.48,2079.45,648.78,2034.31,648.78Z" transform="translate(-229.11 -406.96)"/><path class="cls-5" d="M2040.82,649.84a33.12,33.12,0,0,0-7.18-.79c-29.41,0-53.25,38.58-53.25,86.16h14.36C1994.75,691.56,2014.81,655.51,2040.82,649.84Z" transform="translate(-229.11 -406.96)"/><path class="cls-3" d="M2885.29,1529.57H2351.24v.15H2164.15V455.81C2252.59,524,2296.53,657.45,2273.53,824c-15.57,112.82,19.6,174,79.85,214C2520.15,1148.71,2879,1097.17,2885.29,1529.57Z" transform="translate(-229.11 -406.96)"/><path class="cls-6" d="M2555.49,1402.71s-20.61-24-1.27-39.32c0,0,14.12-8.55,25.64-7.86,0,0-16.32,27.37-11,30.09s16-31.8,16-31.8,32.15-3.12,42.49,1.85c0,0-27.48,22.49-21.69,23.83s35.47-20.74,35.47-20.74,29.91,5.1,28.32,23.35-11.91,23.88-16.44,23.4-31-10.61-31.61-6.89,15.38,15.84,26.55,16.41c0,0-21.09,23.26-35.11,16.55s-15.21-17.36-24-21.35-16.2-4-12.59.09,19.42,8,24.42,16.87,9.48,14.8-5,12.61-38.07-12.79-39.11-24.94Z" transform="translate(-229.11 -406.96)"/><path class="cls-6" d="M2654.69,1382.6s-81.26-3.13-99.2,20.11c0,0-4,11.88-16.18,22.7l-1.91,5.19s14.08-14.84,19.12-15.74C2556.52,1414.86,2548.64,1386.07,2654.69,1382.6Z" transform="translate(-229.11 -406.96)"/><path class="cls-6" d="M2539.31,1425.41s-17.45,12.9-18.66,35.95l3.17.28s5.57-23.83,15.64-33.15S2539.31,1425.41,2539.31,1425.41Z" transform="translate(-229.11 -406.96)"/><path class="cls-7" d="M2483.43,1372.47s32.78-18.36,17.49-43.28c0,0-12.24-15.29-25.36-19.23,0,0,7,37.16,0,38s-4.81-42-4.81-42-34.53-16.61-48.08-15.3c0,0,21.42,36.28,14.43,35.4s-31-37.59-31-37.59S2370.66,1282,2365,1303s3.5,31.47,8.75,32.78,38.9.88,38,5.25-23.61,11.36-36.29,7.43c0,0,14,34.53,32.35,32.78s24-13.11,35.41-14,19.67,2.19,14,5.25-24.92,1-34.1,8.81-16.61,12.61.44,16.1,47.64,1.32,53.76-11.8Z" transform="translate(-229.11 -406.96)"/><path class="cls-6" d="M2381.15,1309.52s91.79,29.73,102.28,63c0,0-.44,14.86,8.74,31.91v6.55s-9.61-22.29-14.86-25.35C2477.31,1385.58,2497.86,1356.73,2381.15,1309.52Z" transform="translate(-229.11 -406.96)"/><path class="cls-6" d="M2492.17,1404.38s14.16,21.49,6.09,47.66l-3.64-1s3.53-28.82-3.87-43.31S2492.17,1404.38,2492.17,1404.38Z" transform="translate(-229.11 -406.96)"/><path class="cls-7" d="M2535.59,1347.15s-43.22-24.2-23.05-57c0,0,16.13-20.17,33.42-25.36,0,0-9.22,49,0,50.13s6.34-55.31,6.34-55.31,45.52-21.9,63.38-20.17c0,0-28.24,47.83-19,46.67s40.91-49.55,40.91-49.55,46.67-8.64,54.16,19-4.6,41.48-11.52,43.21-51.28,1.15-50.13,6.91,31.12,15,47.83,9.8c0,0-18.44,45.52-42.64,43.21s-31.69-17.28-46.67-18.43-25.93,2.88-18.44,6.91,32.84,1.32,44.94,11.61,21.9,16.62-.58,21.23-62.8,1.73-70.87-15.55Z" transform="translate(-229.11 -406.96)"/><path class="cls-6" d="M2670.42,1264.18s-121,39.18-134.83,83c0,0,.57,19.59-11.53,42.06v8.64s12.68-29.38,19.59-33.41C2543.65,1364.44,2516.57,1326.41,2670.42,1264.18Z" transform="translate(-229.11 -406.96)"/><path class="cls-6" d="M2524.06,1389.21s-18.66,28.34-8,62.83l4.8-1.29s-4.66-38,5.1-57.1S2524.06,1389.21,2524.06,1389.21Z" transform="translate(-229.11 -406.96)"/><path class="cls-8" d="M2534.13,1526.84a84.65,84.65,0,0,0,84.65-84.65h-169.3A84.65,84.65,0,0,0,2534.13,1526.84Z" transform="translate(-229.11 -406.96)"/><path class="cls-9" d="M2555,1526.19a82.89,82.89,0,0,1-10.52.65,84.64,84.64,0,0,1-84.64-84.65h21A84.65,84.65,0,0,0,2555,1526.19Z" transform="translate(-229.11 -406.96)"/><path class="cls-8" d="M2620,1531.15H2448.31a10.44,10.44,0,0,1,10.44-10.44h150.76a10.44,10.44,0,0,1,10.44,10.44Z" transform="translate(-229.11 -406.96)"/><rect class="cls-10" x="2217.59" y="1035.23" width="174.01" height="2.6"/><path class="cls-11" d="M2178.3,1265.89c1.53-37.31,4.85-69.75,8.82-92.38,6.32-36.07,12-56.83,12.08-57,.83-3.17,12.87-16,39.63-15.61s24.22,17.23,24.22,17.23h0a5.69,5.69,0,0,1-.19,1.49c-.26.87-24.82,88.72-23.76,202.14,0,1.6.2,4.35.08,6.18,0,0-62,1.58-62,0C2175,1318,2176.05,1290.51,2178.3,1265.89Z" transform="translate(-229.11 -406.96)"/><path class="cls-12" d="M2170.5,1321.16c0,1.58.86,2.84,1.9,2.84h0c1,0,1.85-1.29,1.87-2.84h53.14c0,1.58.86,2.84,1.89,2.84h0c1.05,0,1.88-1.33,1.87-2.93a780.66,780.66,0,0,1,4.41-89.54c7.06-66.74,20.12-111.34,20.31-112a5.83,5.83,0,0,0,.19-1.5s2.54-16.83-24.22-17.23-38.8,12.44-39.63,15.61c-.05.17-3.27,11.92-7.56,33-1.42,7-2.95,15-4.53,24-4,22.63-7.28,55.09-8.81,92.38C2169.13,1290.51,2168.34,1311.25,2170.5,1321.16Z" transform="translate(-229.11 -406.96)"/><path class="cls-13" d="M2170.5,1321.16c0,1.58.86,2.84,1.9,2.84h0c1,0,1.85-1.29,1.87-2.84h53.14c0,1.58.86,2.84,1.89,2.84h0c1.05,0,1.88-1.33,1.87-2.93a780.66,780.66,0,0,1,4.41-89.54c-8.79-42.35-42.75-74.74-50.91-82-1.42,7-2.95,15-4.53,24-4,22.63-7.28,55.09-8.81,92.38C2169.13,1290.51,2168.34,1311.25,2170.5,1321.16Z" transform="translate(-229.11 -406.96)"/><path class="cls-11" d="M2224.06,1320.62l-.15-.11s-.08,0-.09-.26h0a1.4,1.4,0,0,0-.41-1.1c-1.68-1.71-8.11-1.64-16.27-1.55-8.89.1-20,.22-31-1.68-5.71-1-1.86-44.33,2.2-84.87.68-6.88,1.23-12.32,1.47-15.52,2.64-34.49,17.9-95.7,18.05-96.18.67-2.58,9.85-12.14,29.75-11.82,7.53.11,12.86,2,15.85,5.49a10.21,10.21,0,0,1,2.45,7.66,4,4,0,0,1-.15,1.16c-.08.33-13.84,79.5-16.08,98.5-3.71,31.34-5.18,96.14-5.25,99.76v.32Zm-11.87-3.66c5.95,0,10.14.27,11.61,1.76h0c0-1.5.1-4.29.25-9.56.17-6.2.47-15.88.91-26.8.76-19.11,2.09-45.39,4.06-62.1,2.31-19.47,16-98.36,16.11-98.61a4,4,0,0,0,.13-1,9.87,9.87,0,0,0-2.32-7.24c-2.87-3.39-8-5.16-15.39-5.27-19.57-.25-28.51,8.89-29.16,11.38-.15.57-15.38,61.51-18,96.07-.25,3.2-.79,8.64-1.48,15.53-2.7,27-8.33,83.23-2.7,84.21,11,1.9,22,1.77,30.89,1.68C2208.9,1317,2210.61,1317,2212.19,1317Z" transform="translate(-229.11 -406.96)"/><path class="cls-12" d="M2235.15,1324H2026.8s4.85-19.36,125.51-16.48C2237.7,1309.56,2235.15,1324,2235.15,1324Z" transform="translate(-229.11 -406.96)"/><path class="cls-11" d="M2252.1,1526.29c-24.15-120.62-17.94-194.64-17.91-195.58.06-1.85-3.41-3.54-5.28-3.6s-10.22-.55-11.19,1c-1.26,2.08-6.13,93.28,29.88,198.14Z" transform="translate(-229.11 -406.96)"/><path class="cls-11" d="M2057.57,1526.29c24.16-120.62,17.95-194.64,17.92-195.58-.06-1.85,3.41-3.54,5.27-3.6s10.23-.55,11.2,1c1.26,2.08,6.13,93.28-29.88,198.14Z" transform="translate(-229.11 -406.96)"/><path class="cls-14" d="M2019,1526.29c24.16-120.62,18-194.64,17.92-195.58-.06-1.85,3.41-3.54,5.27-3.6s10.23-.55,11.2,1c1.26,2.08,6.13,93.28-29.88,198.14Z" transform="translate(-229.11 -406.96)"/><path class="cls-14" d="M2213.29,1526.29c-24.15-120.62-17.94-194.64-17.91-195.58.06-1.85-3.41-3.54-5.28-3.6s-10.22-.55-11.19,1c-1.26,2.08-6.13,93.28,29.87,198.14Z" transform="translate(-229.11 -406.96)"/><rect class="cls-11" x="2022.41" y="1319" width="216.88" height="11.19" rx="4.24" transform="translate(4032.59 2242.22) rotate(180)"/><path class="cls-11" d="M1389.8,1262.27c1.54-37.82,4.86-70.72,8.82-93.66,6.33-36.57,12-57.61,12.09-57.83.83-3.22,12.87-16.23,39.63-15.83s24.22,17.47,24.22,17.47h0a5.47,5.47,0,0,1-.2,1.51c-.25.88-24.82,90-23.75,204.94,0,1.61.19,4.4.08,6.26,0,0-62,1.6-62,0C1386.5,1315.08,1387.56,1287.23,1389.8,1262.27Z" transform="translate(-229.11 -406.96)"/><path class="cls-12" d="M1382,1318.3c0,1.6.86,2.89,1.89,2.89h0c1,0,1.85-1.31,1.86-2.89h53.14c0,1.6.87,2.89,1.9,2.89h0c1.05,0,1.89-1.35,1.88-3a802.64,802.64,0,0,1,4.4-90.79c7.07-67.65,20.13-112.87,20.31-113.49a5.55,5.55,0,0,0,.2-1.52s2.53-17.07-24.22-17.47-38.8,12.61-39.63,15.83c0,.17-3.28,12.08-7.56,33.5-1.42,7.1-3,15.23-4.53,24.33-4,22.94-7.28,55.84-8.82,93.66C1380.64,1287.23,1379.85,1308.25,1382,1318.3Z" transform="translate(-229.11 -406.96)"/><path class="cls-13" d="M1382,1318.3c0,1.6.86,2.89,1.89,2.89h0c1,0,1.85-1.31,1.86-2.89h53.14c0,1.6.87,2.89,1.9,2.89h0c1.05,0,1.89-1.35,1.88-3a802.64,802.64,0,0,1,4.4-90.79c-8.78-42.93-42.74-75.77-50.9-83.15-1.42,7.1-3,15.23-4.53,24.33-4,22.94-7.28,55.84-8.82,93.66C1380.64,1287.23,1379.85,1308.25,1382,1318.3Z" transform="translate(-229.11 -406.96)"/><path class="cls-11" d="M1435.57,1317.75l-.15-.1c-.05,0-.08-.06-.1-.27h0a1.48,1.48,0,0,0-.43-1.13c-1.69-1.72-8.11-1.65-16.25-1.56-8.9.1-20,.23-31-1.7-5.7-1-1.85-44.93,2.2-86,.69-7,1.23-12.51,1.48-15.75,2.63-34.78,17.9-97,18-97.51.68-2.62,9.85-12.31,29.76-12,7.48.11,12.79,2,15.8,5.5a10.57,10.57,0,0,1,2.5,7.84,4.08,4.08,0,0,1-.15,1.17c-.08.33-13.84,80.59-16.08,99.86-3.71,31.72-5.19,97.49-5.25,101.14v.32ZM1423.7,1314c5.93,0,10.12.28,11.6,1.79h0c0-1.52.1-4.35.25-9.69.18-6.28.48-16.1.91-27.17.77-19.37,2.09-46,4.07-63,2.3-19.69,16-99.72,16.1-100a3.65,3.65,0,0,0,.13-1,10.1,10.1,0,0,0-2.37-7.4c-2.88-3.39-8-5.17-15.33-5.28h-.9c-18.93,0-27.62,9.05-28.26,11.54-.15.57-15.38,62.39-18,97.39l-.31,0,.31,0c-.25,3.26-.79,8.78-1.48,15.77-2.7,27.38-8.33,84.37-2.7,85.35,11,1.93,22,1.8,30.89,1.7C1420.41,1314.06,1422.12,1314,1423.7,1314Z" transform="translate(-229.11 -406.96)"/><path class="cls-12" d="M1446.65,1321.19H1238.31s4.85-19.64,125.51-16.71C1449.21,1306.55,1446.65,1321.19,1446.65,1321.19Z" transform="translate(-229.11 -406.96)"/><path class="cls-11" d="M1463.61,1526.27c-24.16-122.29-17.94-197.33-17.91-198.28.06-1.88-3.41-3.59-5.28-3.65s-10.23-.56-11.19,1.05c-1.27,2.11-6.13,94.57,29.87,200.88Z" transform="translate(-229.11 -406.96)"/><path class="cls-11" d="M1269.08,1526.27C1293.24,1404,1287,1328.94,1287,1328c-.06-1.88,3.41-3.59,5.27-3.65s10.23-.56,11.19,1.05c1.27,2.11,6.13,94.57-29.87,200.88Z" transform="translate(-229.11 -406.96)"/><path class="cls-14" d="M1230.53,1526.27c24.16-122.29,18-197.33,17.91-198.28-.06-1.88,3.41-3.59,5.28-3.65s10.23-.56,11.19,1.05c1.27,2.11,6.13,94.57-29.87,200.88Z" transform="translate(-229.11 -406.96)"/><path class="cls-14" d="M1424.8,1526.27c-24.16-122.29-18-197.33-17.91-198.28.06-1.88-3.41-3.59-5.28-3.65s-10.23-.56-11.19,1.05c-1.27,2.11-6.13,94.57,29.87,200.88Z" transform="translate(-229.11 -406.96)"/><rect class="cls-11" x="1233.92" y="1316.11" width="216.88" height="11.34" rx="4.27" transform="translate(2455.6 2236.61) rotate(180)"/><path class="cls-15" d="M1525.79,1163s17.21,7,29.45-10.57C1555.24,1152.46,1535.38,1149.09,1525.79,1163Z" transform="translate(-229.11 -406.96)"/><path class="cls-15" d="M1524.58,1155.82s-1.21-6.15-8.43-6.36C1516.15,1149.46,1518.87,1155.69,1524.58,1155.82Z" transform="translate(-229.11 -406.96)"/><path class="cls-15" d="M1528.21,1119.81s8.34.9,11.47-8.25C1539.68,1111.56,1530.64,1112.57,1528.21,1119.81Z" transform="translate(-229.11 -406.96)"/><path class="cls-15" d="M1548,998.88c-16.84-3.61-17.12-17.38-17.12-17.38C1550.72,987.77,1548,998.88,1548,998.88Z" transform="translate(-229.11 -406.96)"/><path class="cls-15" d="M1549.17,995.74s10.51,4.27,18-6.45C1567.15,989.29,1555,987.23,1549.17,995.74Z" transform="translate(-229.11 -406.96)"/><path class="cls-15" d="M1526.12,1203.43l-2.18,2.51a.55.55,0,0,1-1-.37c.13-70.91,9.13-133.91,16.69-171.08,8.26-40.57,16.62-64.55,16.71-64.79h0c-.09.24-7.63,24.61-15.86,65.06-7.57,37.23-16.24,85.89-14,167.71A1.41,1.41,0,0,1,1526.12,1203.43Z" transform="translate(-229.11 -406.96)"/><path class="cls-4" d="M1556.24,960c-2.69,2.16-13,11.36-3,18.46,0,0,7.65,2.42,10.18-3.47a37.38,37.38,0,0,0,2.6-11.64,1,1,0,0,0-.93-1.07,7.72,7.72,0,0,1-2.16-.49c-1-.36-1.43-1.79-2.71-2.11a7.55,7.55,0,0,0-2.55-.28A2.61,2.61,0,0,0,1556.24,960Z" transform="translate(-229.11 -406.96)"/><path class="cls-15" d="M1550.53,975.92a6.18,6.18,0,0,1,1.91,6.34l0,1.44A6.83,6.83,0,0,1,1557,979S1553.59,979.35,1550.53,975.92Z" transform="translate(-229.11 -406.96)"/><path class="cls-16" d="M1548,998.88c-16.84-3.61-17.12-17.38-17.12-17.38S1544.23,988.82,1548,998.88Z" transform="translate(-229.11 -406.96)"/><path class="cls-15" d="M1531.83,989.45s-10.59,4-17.84-6.81C1514,982.64,1526.15,980.82,1531.83,989.45Z" transform="translate(-229.11 -406.96)"/><path class="cls-15" d="M1550.72,1197.56l2.13,2.54a.54.54,0,0,0,1-.34c1.3-70.9-6.44-134.07-13.26-171.38-7.44-40.73-15.32-64.88-15.4-65.12h0c.08.24,7.14,24.76,14.55,65.37,6.83,37.38,14.51,86.2,10.68,168A1.49,1.49,0,0,0,1550.72,1197.56Z" transform="translate(-229.11 -406.96)"/><path class="cls-4" d="M1525.48,953.6c2.65,2.22,12.75,11.62,2.63,18.51,0,0-7.7,2.27-10.11-3.67a37.37,37.37,0,0,1-2.36-11.68,1,1,0,0,1,.95-1,8.4,8.4,0,0,0,2.17-.45c1-.35,1.46-1.77,2.75-2.06a7.57,7.57,0,0,1,2.55-.23A2.66,2.66,0,0,1,1525.48,953.6Z" transform="translate(-229.11 -406.96)"/><path class="cls-15" d="M1530.88,969.6a6.18,6.18,0,0,0-2.05,6.3v1.45a6.83,6.83,0,0,0-4.45-4.82S1527.74,973,1530.88,969.6Z" transform="translate(-229.11 -406.96)"/><path class="cls-15" d="M1536.32,977s11.19,1.87,16.14-10.22C1552.46,966.81,1540.18,967.45,1536.32,977Z" transform="translate(-229.11 -406.96)"/><path class="cls-15" d="M1559.11,1184.75l-1.57,2.91a.55.55,0,0,1-1-.14c-15.34-69.23-20.29-132.68-21-170.61-.79-41.39,2.15-66.62,2.18-66.87h0c0,.25-2.09,25.68-1.29,67,.73,38,2.88,87.37,22.86,166.74A1.4,1.4,0,0,1,1559.11,1184.75Z" transform="translate(-229.11 -406.96)"/><path class="cls-4" d="M1535.43,940.64c-2.15,2.69-10.18,13.91,1.1,18.66,0,0,8,.7,9.18-5.6a37.33,37.33,0,0,0,0-11.92,1,1,0,0,0-1.14-.85,7.85,7.85,0,0,1-2.22,0c-1-.15-1.78-1.44-3.1-1.46a7.56,7.56,0,0,0-2.55.27A2.7,2.7,0,0,0,1535.43,940.64Z" transform="translate(-229.11 -406.96)"/><path class="cls-15" d="M1533.32,957.39a6.19,6.19,0,0,1,3.26,5.77l.28,1.41a6.84,6.84,0,0,1,3.41-5.6S1537.06,960.07,1533.32,957.39Z" transform="translate(-229.11 -406.96)"/><path class="cls-15" d="M1545.55,964.57s0-8.85,7.63-11.63C1553.18,952.94,1554.86,960.33,1545.55,964.57Z" transform="translate(-229.11 -406.96)"/><path class="cls-17" d="M1527.63,950.34s.22-6.76-6-8.71C1521.6,941.63,1520.1,947.92,1527.63,950.34Z" transform="translate(-229.11 -406.96)"/><path class="cls-17" d="M1548.14,991c.22.19,3.26-6.58-2.91-12C1545.23,979,1542.65,986.23,1548.14,991Z" transform="translate(-229.11 -406.96)"/><path class="cls-15" d="M1552.46,990.47a3.66,3.66,0,0,1,3.16-3.86S1556.16,989.45,1552.46,990.47Z" transform="translate(-229.11 -406.96)"/><path class="cls-15" d="M1520.49,979s-2.7-5.6-11.36-4.63C1509.13,974.35,1510.42,980.36,1520.49,979Z" transform="translate(-229.11 -406.96)"/><path class="cls-4" d="M1568.36,1211.73h-55.52a6.11,6.11,0,0,1-6-7l25.84-178.12a3.38,3.38,0,0,1,3.34-2.9h8.26a3.63,3.63,0,0,1,3.57,3.08l26.45,178.11A6,6,0,0,1,1568.36,1211.73Z" transform="translate(-229.11 -406.96)"/><path class="cls-5" d="M1525.14,1206.34l13.72-182.58a3.36,3.36,0,0,0-2.9,2.85l-25.84,178.12a6.13,6.13,0,0,0,6.06,7h11.1A6.58,6.58,0,0,1,1525.14,1206.34Z" transform="translate(-229.11 -406.96)"/><path class="cls-18" d="M2069.63,1192.28s-38.09,43.5-45.88,42.79c-8-.72-12.83-3.23-19.76,0-5,2.33-20.72,15-16.49,14.15s11.87-1.82,13.89-2c2.78-.27,7.24-.33,10.27-.85,1.92-.34,8.84-.53,11.14-.61,10-.33,57.44-28,57.44-28Z" transform="translate(-229.11 -406.96)"/><path class="cls-19" d="M2007,1145.82c-1.51-.94-4.46-.57-6.59-.12v-3.09a16.72,16.72,0,0,0-.13-2h-32a16.72,16.72,0,0,0-.13,2v6.28a16.12,16.12,0,0,0,28.24,10.64h0s7.61-1.88,10-4.72S2009.5,1147.39,2007,1145.82Zm-1.69,5.81c-.81,2.09-4.44,3.21-6.23,3.65a16,16,0,0,0,1.29-5.31c1.1-1.52,2.85-2.4,4.13-2.17S2006.29,1149,2005.27,1151.63Z" transform="translate(-229.11 -406.96)"/><path class="cls-20" d="M1970.71,1142.61v6.28a16.19,16.19,0,0,0,16.14,16.14,14.22,14.22,0,0,0,2.17-.16,16.18,16.18,0,0,1-14-16v-6.28a16.72,16.72,0,0,1,.13-2h-4.34A16.72,16.72,0,0,0,1970.71,1142.61Z" transform="translate(-229.11 -406.96)"/><rect class="cls-19" x="1748.52" y="756.66" width="13.17" height="1.97"/><path class="cls-21" d="M2096.06,971.38s1.72-21.85,33.15-16.18c8.31,1.5,14-13.31,27.62-8,29.28,11.36,31-3.65,39.47,17.42,3.54,8.82,26.07,19.08,19.19,34.32s4.64,25.49-3.45,37.43c-4.19,6.18-2.49,17.22-22.24,17.61-9.83.2-25.15,18.43-36.19,21.73s-44.18-1.46-42.93-16.6c1-11.82-12.8-10.83-21.27-24.42-7.39-11.87,5.81-14.86-1.25-34.05C2083,986.54,2096.46,983.12,2096.06,971.38Z" transform="translate(-229.11 -406.96)"/><path class="cls-18" d="M1923.3,1508.88c.67,7.31-9.5,9.09-21.29,9.67s-8.22,3-24.37,5.93-22.62-1.5-23.79-3.68c-1-1.93,6.47-5,14.47-8.38l3-1.31c9-4,14.06-12,21.08-19.53,6.65-7.09,13-29.8,13-29.8l21.94-4.69s-6.16,20.44-8.3,29.17c-1.26,5.13.6,10.87,2.25,15.24A28.73,28.73,0,0,1,1923.3,1508.88Z" transform="translate(-229.11 -406.96)"/><path class="cls-22" d="M1902,1518.55c-11.78.59-8.22,3-24.37,5.93s-22.62-1.5-23.79-3.68c-1-1.93,6.47-5,14.47-8.38l.12.13a45.92,45.92,0,0,0,24.46.29c10.69-2.9,21-9.28,28.38-11.34a28.73,28.73,0,0,1,2,7.38C1924,1516.19,1913.8,1518,1902,1518.55Z" transform="translate(-229.11 -406.96)"/><path class="cls-23" d="M2117.63,1232.19s-121.63,5.47-149.08,22.8-71.49,219.15-71.49,219.15,2.72,2.18,8.79,2.83c5.65.62,18.08-2.7,18.08-2.7s63.28-90.31,67.74-113.06,3.36-43,13.51-43.59S2141.86,1333,2161,1299.29,2117.63,1232.19,2117.63,1232.19Z" transform="translate(-229.11 -406.96)"/><path class="cls-18" d="M1973.47,1509.7c.68,7.31-9.5,9.09-21.28,9.67s-8.23,3-24.37,5.93-22.63-1.5-23.79-3.68c-1-1.93,6.46-5,14.46-8.38l3-1.31c9-4,14.06-12,21.08-19.53,6.65-7.09,13-29.8,13-29.8l22-4.69s-6.16,20.44-8.3,29.17c-1.26,5.13.6,10.87,2.25,15.24A28.82,28.82,0,0,1,1973.47,1509.7Z" transform="translate(-229.11 -406.96)"/><path class="cls-22" d="M1952.19,1519.37c-11.79.59-8.23,3-24.37,5.93s-22.63-1.5-23.79-3.68c-1-1.93,6.46-5,14.46-8.38l.13.13a46,46,0,0,0,24.46.3c10.68-2.91,21-9.29,28.38-11.35a28.82,28.82,0,0,1,2,7.38C1974.15,1517,1964,1518.79,1952.19,1519.37Z" transform="translate(-229.11 -406.96)"/><path class="cls-21" d="M2164.78,1235.07s-129.55,6.13-156.31,24.51-62.91,221.77-62.91,221.77,2.8,2.08,8.9,2.5c5.66.39,18-3.41,18-3.41s59.72-92.7,63.29-115.61,1.69-43.15,11.81-44.08,137.17,10,155-24.39S2164.78,1235.07,2164.78,1235.07Z" transform="translate(-229.11 -406.96)"/><path class="cls-18" d="M2203.55,1069.55a1.4,1.4,0,0,0-.16-.2,20.62,20.62,0,0,0-3.62-3.17l0,0h0c-10.58-7.4-29.49-9-29.49-9h0s-2.07-.19-5.34-.34a98.16,98.16,0,0,1-6.18-29.84l-1.87.51-31.52,8.45s1.39,10,2.05,19.47c.14,2.08.25,4.12.3,6-.92.33-20.53,3.09-24.79,7.67s-12.79,35.12-14.94,40.53l121.35,2S2212.33,1079.93,2203.55,1069.55Z" transform="translate(-229.11 -406.96)"/><path class="cls-15" d="M2208,1286.6c-14.36,1.37-62.79-27.87-78.92-37.38l-.82-.48c-6.72-4-16.17-5.81-25.16-7.3-11.45-1.87-22.13-3.14-25.56-7.23-4.07-4.87,7.91-10.27,17.54-15.88,4.84-2.82,9.1-5.71,10.43-8.59,1-2.26.95-7.22.26-13.57h0c-.11-1.19-.27-2.42-.44-3.7a40.65,40.65,0,0,1-2.89,5,72.6,72.6,0,0,1-10.28,12c-4.57,4.33-9.12,7.56-12,8.24a9.42,9.42,0,0,1-5.7-.51c-5-2-9.91-7.52-13.77-12.86-.91-1.26-1.77-2.52-2.55-3.72-2.64-4-4.51-7.31-5.22-8.09-2.15-2.38,8.65-7.1,13.08-10.63s21.84-72.25,21.84-72.25c2.15-5.41,10.67-35.93,14.94-40.53,0,0,16.63,20.31,38.19,19.15s58.09-21.81,58.66-22.13a13.47,13.47,0,0,1,3.84,3.4c8.77,10.38,5.73,42.09,5.73,42.09s-16.79,74-16.79,81.44c0,13.69,11.32,45.16,16.72,67.82C2212.64,1275.26,2213.7,1286.07,2208,1286.6Z" transform="translate(-229.11 -406.96)"/><path class="cls-24" d="M2125.31,1036s1.4,10,2.05,19.47c17.84-1.69,26.2-18.63,29.47-27.92Z" transform="translate(-229.11 -406.96)"/><path class="cls-18" d="M2119.94,1045.31s42.33-2.12,40.61-28.46,2.57-44.36-24.53-44.12-31.7,10.63-33.26,19.57S2108.88,1045.19,2119.94,1045.31Z" transform="translate(-229.11 -406.96)"/><path class="cls-21" d="M2118.15,982.11s10.12-2.37,13.43,2.55.94,7.68,8.33,9.75,9.89,1.92,9.15,7.09,7.42,9,7.77,13.13,3.74,6.2,7,6.5,1.77-53.29-10.78-55.66-24.65.45-28.34,3.4S2118.15,982.11,2118.15,982.11Z" transform="translate(-229.11 -406.96)"/><path class="cls-21" d="M2118.15,982.11s-9.84-.69-11.61,4.92.59,6.94-1.92,10.33-1.06,9.42-1.06,9.42-19.46-35.84,1.06-38.21S2124.6,970.39,2118.15,982.11Z" transform="translate(-229.11 -406.96)"/><path class="cls-25" d="M2105.29,1184c-2.81,8.45-7.83,17.74-13.1,25.46-4.57,4.33-9.12,7.56-12,8.24a9.42,9.42,0,0,1-5.7-.51c-5-2-9.91-7.52-13.77-12.86-.91-1.26-1.77-2.52-2.55-3.72,13.45-10.79,38.94-35.48,41.59-69.27C2103.43,1085.21,2105.49,1186.14,2105.29,1184Z" transform="translate(-229.11 -406.96)"/><path class="cls-25" d="M2074.54,1217.21c4.69-7.16,14.24-14.22,27.93-19.76-6.3,9.44-17.09,19-22.23,20.27A9.42,9.42,0,0,1,2074.54,1217.21Z" transform="translate(-229.11 -406.96)"/><path class="cls-25" d="M2186.46,1128.4s-10.57,106.23-57.35,120.82l-.82-.48c-6.72-4-16.17-5.81-25.16-7.3-11.45-1.87-22.13-3.14-25.56-7.23-4.07-4.87,7.91-10.27,17.54-15.88,4.84-2.82,9.1-5.71,10.43-8.59,1-2.26.95-7.22.26-13.57h0C2151.2,1179.37,2186.46,1128.4,2186.46,1128.4Z" transform="translate(-229.11 -406.96)"/><path class="cls-18" d="M2198.36,1096.94c-4.9-22.09-27.13-9.42-27.13-9.42-7.71-1.75-64.28,89.94-68.81,92-3.84,1.76-56-13.38-71.8-18-4.09-3.2-18.45-14.35-21-14.54-2.94-.22-22.56,4.82-22.44,7.94s4.72,7.68,12,8.84c5.49.87,14.8,4.49,20.74,5.39h0s57.54,39.2,82,44C2124,1217.4,2203.26,1119,2198.36,1096.94Z" transform="translate(-229.11 -406.96)"/><path class="cls-15" d="M2067.94,1171.88s-13.26,34.08,2.63,47,50.38,8.59,88.15-44.09,53.15-81.36,33.54-89.73-35.81,4.76-45.87,25.25c-10.46,21.3-29.73,50.79-41.29,51.91S2067.94,1171.88,2067.94,1171.88Z" transform="translate(-229.11 -406.96)"/><path class="cls-18" d="M1735.37,851.52l0,5.15s-1.4,16.09,18.41,18.44,36.07,2,35.53-10.37c-1.78-9.62-5-24.54-5.11-32.5a55.9,55.9,0,0,1,.7-9.63l-38.39-.77-11.31,1.85Z" transform="translate(-229.11 -406.96)"/><path class="cls-26" d="M1735.23,823.69l.14,27.83a32.42,32.42,0,0,0,13.84,3.05c17.65,0,29.06-12.94,35-22.33a55.9,55.9,0,0,1,.7-9.63l-38.39-.77Z" transform="translate(-229.11 -406.96)"/><path class="cls-18" d="M1787.87,816.43c-4.45,24-35.39,23.19-48.76,21.68-3.76-.42-6.13-.9-6.13-.9-4.24-1.13-6.61-7.81-7.71-16.57-2.18-17.32.58-42.75,3.5-49.25,4.41-9.79,12.7-20.37,43.86-12.73S1793.59,785.71,1787.87,816.43Z" transform="translate(-229.11 -406.96)"/><path class="cls-27" d="M1813.19,1526.28h-43.84a105.43,105.43,0,0,1,3.5-15.73,45,45,0,0,1,2.48-6.32c4.26-8.51,31.34-3.09,31.34-3.09s2.52,2.15,4.48,10.38A87.39,87.39,0,0,1,1813.19,1526.28Z" transform="translate(-229.11 -406.96)"/><path class="cls-27" d="M1680.71,1512.45c-.12,6-.87,11.61-3,13.83H1591c1.1-3.13,4.22-7.85,13.12-9.3,10.12-1.63,25.89-6.5,35.09-16.24a26.07,26.07,0,0,0,6.8-12.3c4.08-18.16,33.73,5.57,33.73,5.57A145.59,145.59,0,0,1,1680.71,1512.45Z" transform="translate(-229.11 -406.96)"/><path class="cls-28" d="M1738.39,1316.11a137.88,137.88,0,0,0-2.18,16c-2.75,53.77-45.26,176.71-52.86,179.57-11.77,4.44-30.29-5-40-8.08a8.3,8.3,0,0,1-5.83-9.44c21-96.77,28.78-236.11,31.6-318.6,1.42-41.56,8.55-70.26,8.55-70.26s103.67-27.66,104.28,7.33C1782.52,1143.61,1747.63,1265,1738.39,1316.11Z" transform="translate(-229.11 -406.96)"/><path class="cls-27" d="M1738.39,1316.11l-69.25-140.53c1.42-41.56,8.55-70.26,8.55-70.26s103.67-27.66,104.28,7.33C1782.52,1143.61,1747.63,1265,1738.39,1316.11Z" transform="translate(-229.11 -406.96)"/><path class="cls-28" d="M1715.32,1112.77,1770.13,1510s24.06,5.81,42.78,1.16c0,0,16-211.24,14.71-262.31s11.51-136.66-2.94-146.1S1715.32,1112.77,1715.32,1112.77Z" transform="translate(-229.11 -406.96)"/><path class="cls-27" d="M1719.21,748.57a103.2,103.2,0,0,0,29.89-8.09c13.13-5.71,29.69.58,35.07,3.41a8,8,0,0,0-1.31-3.23,7.23,7.23,0,0,1,2.77,4.1c.25.18.36.31.29.35a9.28,9.28,0,0,1,4.5.29s-1.23-.17-1.67.62a1,1,0,0,1-.2.22c20.48,9.89,22.37,42.26,15.78,49.74-7.93,9-17.44,29.3-17.44,29.3s-3.46-4.79-2-12.72-5.41-7.93-14.06-11.53-1.44-13.7-9-19.82-35.31-2.52-35-7.21C1716.54,770.25,1719.21,749.62,1719.21,748.57Z" transform="translate(-229.11 -406.96)"/><path class="cls-29" d="M1794,871.64l-12.62,270.72s-105.31,1.72-102.3-22.11,38-240.32,38-240.32Z" transform="translate(-229.11 -406.96)"/><path class="cls-30" d="M1831.61,1025.09c-6.26,18.79,5.55,81.86,9.76,103.23.93,4.52,1.54,7.19,1.54,7.19-14.58,23.72-68,23.42-68,23.42-10.28-45.4-15.62-117.71-15.62-117.71l41-179.65,51.56,47.66s-3.9,29.07-8.73,58.65C1839.32,991.3,1835,1015.13,1831.61,1025.09Z" transform="translate(-229.11 -406.96)"/><path class="cls-31" d="M1744,820.37s-1,3.09-8.8,2c0,0-6.55-.94-6.07-4.39C1729.1,817.94,1735.69,816,1744,820.37Z" transform="translate(-229.11 -406.96)"/><path class="cls-30" d="M1684.79,875.5l0,.11c-2.49,2.41-72.79,70.67-86.41,97.4-13.87,27.12,63.37,81.15,63.37,81.15s5,2,8.42,1.19c-3.64,30-7.72,57.65-5.3,69.46,4.37,21.35,24.12,28.52,24.12,26.87,0-.52,7.22-77.56,11.14-117.76,8.41-86.19,29.47-171.8,29.47-171.8C1706.58,864.51,1684.79,875.5,1684.79,875.5Zm-41.86,109.22a.63.63,0,0,1-.1-.41c0-3.9,14.89-12.53,31-22.7l.31-.31,0,0c-.29,8.31-.26,16.46.23,24.05.92,14.07-.1,30.89-1.81,48C1664.94,1021.36,1644.43,989.14,1642.93,984.72Z" transform="translate(-229.11 -406.96)"/><path class="cls-32" d="M1797,861.25c.13-2.59-12.11-6.16-12.11-6.16s-14,19.42-37.08,19.76c0,0,6.57,12.8,14.32,16.11C1762.13,891,1796.24,876.59,1797,861.25Z" transform="translate(-229.11 -406.96)"/><path class="cls-32" d="M1747.81,874.39s-12.23-7.24-12.27-15.1c0,0-7.9-1-11.34,2.84,0,0-2.9,13.47.94,21.29C1725.14,883.42,1742.75,880.73,1747.81,874.39Z" transform="translate(-229.11 -406.96)"/><path class="cls-33" d="M1756.11,873.23l-16.58-4s-2.17.18-2.11,2.88,4.67,10.59,6.71,11.23S1760,878.69,1756.11,873.23Z" transform="translate(-229.11 -406.96)"/><path class="cls-29" d="M1795.07,859.91c.13-2.58-8.15-7.91-8.15-7.91s-16,18.74-39.11,19.08c0,0,6.57,12.8,14.32,16.11C1762.13,887.19,1794.31,875.25,1795.07,859.91Z" transform="translate(-229.11 -406.96)"/><path class="cls-29" d="M1747.81,871.08s-12.37-6.56-12.41-14.41c0,0-7.46,3.28-10.91,7.11,0,0-3.19,8.5.65,16.32C1725.14,880.1,1742.75,877.42,1747.81,871.08Z" transform="translate(-229.11 -406.96)"/><path class="cls-22" d="M1715.4,1057.82a25.48,25.48,0,0,0,8.14,16.52l7.34,6.76a4.3,4.3,0,0,0,6.29-.5l9.1-11.55a15.35,15.35,0,0,0,3.21-10.94c-.85-8.74-2.44-25.59-3.7-41.84-1-13.17-1.86-26-1.93-33.75-.2-24.85,4.73-104.1,4.73-104.1l-5.95.31a319,319,0,0,0-22.55,72.62A276.74,276.74,0,0,0,1716,984S1712.86,1029.24,1715.4,1057.82Z" transform="translate(-229.11 -406.96)"/><path class="cls-33" d="M1715.4,1057.82a25.48,25.48,0,0,0,8.14,16.52l7.34,6.76a4.3,4.3,0,0,0,6.29-.5l9.1-11.55a15.35,15.35,0,0,0,3.21-10.94c-.85-8.74-2.44-25.59-3.7-41.84-16.47-18.5-23.14-44.06-25.7-64.92A276.74,276.74,0,0,0,1716,984S1712.86,1029.24,1715.4,1057.82Z" transform="translate(-229.11 -406.96)"/><path class="cls-18" d="M1656.8,1058.55a11.39,11.39,0,0,1,12.89-11.4,7.09,7.09,0,0,1,4.79,2.64c4.69,6.25,9.16,24.44.84,25.29-3.39.34-7.74-2-11.09-4.58s-7.43-6.64-7.43-10.91Z" transform="translate(-229.11 -406.96)"/><path class="cls-27" d="M1841.37,1128.32c-15.1-15.72-41.19-46.63-40.26-72,1.23-35.54,42-88.43,42-88.43-3.8,23.42-8.12,47.25-11.51,57.21C1825.35,1043.88,1837.16,1107,1841.37,1128.32Z" transform="translate(-229.11 -406.96)"/><path class="cls-18" d="M1840.9,1066.5s-10.86,5.43-17.45,2.71-14.34-4.75-21.7,3.64-8.92,14.2-7.37,17.3,18.72,1.94,21.57,0,7.36-6.71,10.22-5.88c7.88,2.29,14.53-3.73,18.25-8.52C1846.66,1072.86,1840.61,1071.46,1840.9,1066.5Z" transform="translate(-229.11 -406.96)"/><path class="cls-30" d="M1800.29,861.57s43.23,4.78,53.42,23.61,63.22,95.13,61.48,126.84-72.32,67.26-72.32,67.26-15.63-6.6-15.87-13.71,48.8-49.59,45.83-57.52-57-70.62-62.17-91.3S1800.29,861.57,1800.29,861.57Z" transform="translate(-229.11 -406.96)"/><path class="cls-27" d="M1674.15,961.3l-.31.31c-16.12,10.17-31,18.8-31,22.7-2.16-6.88,18.79-35.64,25.57-41.49S1674.15,961.3,1674.15,961.3Z" transform="translate(-229.11 -406.96)"/><path class="cls-27" d="M1786.92,852s-32.83,137.47-27.6,189.25c0,0,12.07-55.33,41.1-100.66,0,0-10.59-9.32-10-12.76,0,0,7.87-2.33,15.5-.76,0,0-.84-59.25-5.6-65.51S1786.92,852,1786.92,852Z" transform="translate(-229.11 -406.96)"/><path class="cls-27" d="M1735.4,856.67c.67-.4-32.52,134.32-35.3,177.25,0,0,3.29-76.6,3-98.68,0,0,13.63-7.22,13.63-9.75s-14.54-9.38-14.54-9.38,9.2-47.18,14.23-52.38S1735.4,856.67,1735.4,856.67Z" transform="translate(-229.11 -406.96)"/><path class="cls-18" d="M1308.47,1452.11a6.16,6.16,0,0,1,1.09,6.58,0,0,0,0,1,0,0c-1.59,4.39-6.84,9.29-12.93,14.18-.78.63-1.47,1.2-2.07,1.73l-.47.42-.36.32c-5.68,5.24-3.54,6.44-13.75,17.06-11.63,12.11-19.65,12.33-21.93,11.23-1.92-.94,2-7.36,6.34-14.58.21-.35.41-.7.63-1,.58-1,1.15-1.94,1.72-2.9,5.09-8.69,3.79-12.77,2.58-25.69-1-10.51-16.35-58.7-16.35-58.7l22.31-3.84s6.71,38.37,14.11,44.28c4,3.15,8.39,3.19,12.19,5.53.27.16.54.32.79.5A29.1,29.1,0,0,1,1308.47,1452.11Z" transform="translate(-229.11 -406.96)"/><path class="cls-22" d="M1308.47,1452.11a6.16,6.16,0,0,1,1.09,6.58,0,0,0,0,1,0,0c-2,4.39-7.06,9.26-13,14.14-.77.64-1.45,1.22-2,1.77l-.47.42-.36.32c-5.68,5.24-3.54,6.44-13.75,17.06-11.63,12.11-19.65,12.33-21.93,11.23-1.92-.94,2-7.36,6.34-14.58a49.68,49.68,0,0,0,20.74-15.29c7-8.94,11.68-20.43,16.45-27.08.27.16.54.32.79.5A29.1,29.1,0,0,1,1308.47,1452.11Z" transform="translate(-229.11 -406.96)"/><path class="cls-18" d="M1128.63,1438.18c-1.37,6.88-11.19,5.74-22.15,3.06s-8.36.5-24-1.23-20.33-7.54-20.81-9.86c-.42-2.06,7.29-2.78,15.56-3.74,1-.11,2.08-.24,3.13-.37,9.33-1.17,16.17-7.2,24.65-12.15,8-4.68,20-23.78,20-23.78l21.4,1.7s-11.23,17-15.57,24.47c-2.56,4.36-2.42,10.13-2.1,14.58A27.63,27.63,0,0,1,1128.63,1438.18Z" transform="translate(-229.11 -406.96)"/><path class="cls-22" d="M1106.48,1441.24c-11-2.68-8.36.5-24-1.23s-20.33-7.54-20.81-9.86c-.42-2.06,7.29-2.78,15.56-3.74l.07.16a44,44,0,0,0,22.35,7c10.59.25,21.8-2.78,29.11-2.66a27.63,27.63,0,0,1-.17,7.32C1127.26,1445.06,1117.44,1443.92,1106.48,1441.24Z" transform="translate(-229.11 -406.96)"/><path class="cls-18" d="M1176.25,1123.89s-5.1-12.49-10.71-13-23.45-3.32-24.73-.77,0,11.73,3.83,15,27.53,8.67,27.53,8.67Z" transform="translate(-229.11 -406.96)"/><path class="cls-34" d="M1210.64,1301.35l46.12,124.11a42.07,42.07,0,0,0,13.87-1.27c6.25-1.8,13.42-6.53,13.42-6.53s-11.44-119.17-32.42-144S1210.64,1301.35,1210.64,1301.35Z" transform="translate(-229.11 -406.96)"/><path class="cls-22" d="M1393,1251.14s-132.51-44.81-162.06-35.27S1112.69,1402,1112.69,1402s2,2.66,7.47,4.71c5.08,1.91,17.39,1.79,17.39,1.79s80.08-68.65,89.61-88.67,13.35-39.08,22.88-37.18,123,46.72,148.73,20,19-61.37,19-61.37Z" transform="translate(-229.11 -406.96)"/><path class="cls-35" d="M1312.06,1042.69c-2.11-4.37-4.48-12.13-5.64-26,.18,1.37,2.57,18.82,9.28,28.7,27.56,18.09,80.38,78.51,79.33,90,0,0,18.61-31.56,18.93-31.75,0,0,34.32-43.64-6.36-68.64-20.67-12.71-20.56-29-19.7-43.18s-5.64-75.15-47.05-59.19c0,0-6.65-3-9.63-2.51a8.1,8.1,0,0,1,3.67,1.74c-4.8-.29-11.67.07-17.39,3.32C1302.31,943.81,1288.73,1021.21,1312.06,1042.69Z" transform="translate(-229.11 -406.96)"/><path class="cls-18" d="M1317.33,1046.33c-.14.06,13.3,7,23.42,4.27,9.51-2.59,15.72-14.92,15.59-14.95-4-.8-5.19-6.34-5.1-30.12l-1.82.35L1318.8,1012s.69,9.63.71,18.71C1319.54,1038.29,1319.07,1045.51,1317.33,1046.33Z" transform="translate(-229.11 -406.96)"/><path class="cls-36" d="M1318.8,1012s.69,9.63.71,18.71c17.14-.48,26.2-16.11,29.91-24.78Z" transform="translate(-229.11 -406.96)"/><path class="cls-35" d="M1352.58,1002.55s9-14.19,11.14-26.32c1.53-8.66-2.88-40.77-35.14-36.14A43.8,43.8,0,0,0,1310.4,947c-7,4.73-17.11,14.94-5.81,43l2.94,9.46Z" transform="translate(-229.11 -406.96)"/><path class="cls-18" d="M1313.07,1020.54s40.55.67,40.57-24.58,5.28-42.18-20.6-43.67-30.92,8.14-33,16.56S1302.53,1019.72,1313.07,1020.54Z" transform="translate(-229.11 -406.96)"/><path class="cls-35" d="M1314.58,951.67s11.1,29.63,28.13,34,24.42-.18,24.42-.18a48.24,48.24,0,0,1-15.77-28.5S1323,937.57,1314.58,951.67Z" transform="translate(-229.11 -406.96)"/><path class="cls-35" d="M1317.33,954.08s-8.29,6.61-10.31,13-2.93,19.67-6.79,19.22c0,0-8.37-20.14,1-31.53C1311.23,942.73,1317.33,954.08,1317.33,954.08Z" transform="translate(-229.11 -406.96)"/><path class="cls-37" d="M1424.13,1251.84c-2.19,6.07-8.89,7.63-17.88,6.58-17.14-2-42.59-13.51-60.93-21.46-28-12.13-40.68-.74-49.58-8.45s10.17-24.87-6.36-104.53c-5.6-27,29.91-84.93,29.91-84.93s3.07,16.77,37-3.4c1.2-.71,14.58,19.09,27.46,43.51,14.2,26.93,27.8,59.47,23.8,76.24C1400,1187.36,1430.49,1234.2,1424.13,1251.84Z" transform="translate(-229.11 -406.96)"/><path class="cls-37" d="M1319.29,1039.05,1298.35,1125s-2.61,4.64-6.7,11.25c-9.59,15.51-27.34,41.85-38.71,44.53-5.6,1.32-17.53-3.35-30.72-10-25-12.61-54.45-32.36-54.45-32.36-1.9-11.44,8-20.77,8-20.77s59.75,22.46,65.68,22.88c12.94.93,26.1-61.5,38.19-82.31C1288.43,1043.15,1319.29,1039.05,1319.29,1039.05Z" transform="translate(-229.11 -406.96)"/><path class="cls-31" d="M1322.09,1005.24s-.76,3.2-8.74,2.71c0,0-6.7-.41-6.5-3.94C1306.85,1004,1313.35,1001.5,1322.09,1005.24Z" transform="translate(-229.11 -406.96)"/><path class="cls-38" d="M1424.13,1251.84c-2.19,6.07-8.89,7.63-17.88,6.58-11.86-5.17-63.1-25-62.52-38.47.85-19.91,9.85-20.55,3.49-45.12-5.1-19.74,42.24-56.43,49.79-64.41,14.2,26.94,14.59,28.21,10.59,45C1400,1187.36,1430.49,1234.2,1424.13,1251.84Z" transform="translate(-229.11 -406.96)"/><path class="cls-38" d="M1291.65,1136.23c-9.59,15.51-27.34,41.85-38.71,44.53-5.6,1.32-17.53-3.35-30.72-10,9.63,2.48,19,2.41,28.07,1.53,9.86-1,12.72-13,28.29-31.14C1288.68,1129.39,1291.16,1132.35,1291.65,1136.23Z" transform="translate(-229.11 -406.96)"/><path class="cls-18" d="M1339.12,1174.35s-8.58-6.67-16.69-5.09-12.07,7.16-11.75,9.7,4.6,9.69,10.8,10.33,23.84-3.82,23.84-3.82Z" transform="translate(-229.11 -406.96)"/><path class="cls-37" d="M1356.34,1035.65s33.05,2,44.48,18c16.11,22.46,44.07,114.14,36.45,135.12l-100.53-.43s-2.44-11.38,1-16.89,58.47-14.41,61-17-31.78-49.58-31.78-57.21S1356.34,1035.65,1356.34,1035.65Z" transform="translate(-229.11 -406.96)"/><polygon class="cls-21" points="1101.38 804.94 979.68 804.94 957.74 728.43 1079.26 728.43 1101.38 804.94"/><rect class="cls-23" x="980.09" y="801.96" width="159.11" height="2.98"/><path class="cls-23" d="M1247.43,1172.4c-.77-2.69.79-4.87,3.48-4.87a7,7,0,0,1,6.26,4.87c.77,2.69-.78,4.87-3.47,4.87A7,7,0,0,1,1247.43,1172.4Z" transform="translate(-229.11 -406.96)"/><path class="cls-18" d="M948.07,1038.26s13.3-10.87,18.08-10.93,13.86-2.44,13.5-.89-8,3.58-6.69,4.3,12.43-2.27,15.53-.48,10.4,9.2,4.54,12.43-23.42,8.36-28,7.77-14.81-1.32-14.81-1.32Z" transform="translate(-229.11 -406.96)"/><polygon class="cls-18" points="549.06 1035.59 560.22 1082.58 576.93 1082.48 577.54 1035.59 549.06 1035.59"/><polygon class="cls-18" points="689.63 1037.59 721.38 1082.58 733.75 1066.69 714.65 1031.4 689.63 1037.59"/><path class="cls-23" d="M853.69,876.37h0a2.07,2.07,0,0,0,0-.35c-.21-2.34-.48-4.65-.8-7h0a151.8,151.8,0,0,0-4-19.88c-1-3.47-2-6.71-3.15-9.62-.18-.45-.35-.87-.51-1.3h0c-2.72-6.63-5.81-11.39-9-13.18-5.77-3.28-12.68-3.64-17.52-3.36a8.22,8.22,0,0,1,3.7-1.75c-3-.45-9.69,2.53-9.69,2.53-41.72-16.07-48.27,45.34-47.39,59.61s-14,18.93-35.72,30.17c-41.41,21.45-45.05,50.18-45.05,50.18q.48.28,1,.66c2.05-3.48,6.29-10,9.85-11a148.92,148.92,0,0,0-5.74,14c5.23,4,12.39,10,20.13,16.77h0c10.36,9,21.74,19.35,30.85,27.7-.06-2.85.05-6.9,1.09-9l1.74,10.48.23,1.37c5.81,5.34,10.39,9.6,12.72,11.78.23.22.44.42.64.59l1,1c-.34-3.66,4.81-12.31,12.86-23,.56-.75,1.14-1.5,1.73-2.26,2.59-3.37,5.45-6.9,8.5-10.52,1.1-1.31,2.21-2.62,3.36-4h0c.91-1.07,1.84-2.13,2.8-3.21h0c2.25-2.56,4.58-5.13,6.94-7.7,6.11-6.67,12.52-13.23,18.77-19.2,9.08-8.69,17.83-16.11,24.92-20.77.27-.39.53-.79.76-1.2a43.33,43.33,0,0,0,3.42-7c.29-.74.57-1.5.83-2.25a102.78,102.78,0,0,0,4.29-18.07,105.3,105.3,0,0,1-3,18.41c-.27,1-.54,1.87-.81,2.71h0a39.92,39.92,0,0,1-1.86,4.68,26.14,26.14,0,0,0,3.35-3.79,28.61,28.61,0,0,0,1.88-2.92C853.88,914.49,855.38,895.06,853.69,876.37Z" transform="translate(-229.11 -406.96)"/><path class="cls-18" d="M836.38,937c.14.06-13.4,7.09-23.59,4.31-9.58-2.62-15.84-15-15.7-15.07,4-.8,5.22-6.38,5.14-30.34l1.83.36,30.84,6.11s-.7,9.71-.72,18.85C834.16,928.9,834.62,936.18,836.38,937Z" transform="translate(-229.11 -406.96)"/><path class="cls-20" d="M801.5,835.11s15.22-16.19,34.32-.82C835.82,834.29,824.7,832.36,801.5,835.11Z" transform="translate(-229.11 -406.96)"/><path class="cls-36" d="M834.9,902.37s-.7,9.71-.72,18.85c-17.26-.49-26.38-16.23-30.12-25Z" transform="translate(-229.11 -406.96)"/><path class="cls-23" d="M800.88,892.91s-9-14.29-11.22-26.51c-1.55-8.73,2.89-41.06,35.39-36.41a44.09,44.09,0,0,1,18.31,6.93c7,4.76,17.24,15.05,5.85,43.27l-3,9.53Z" transform="translate(-229.11 -406.96)"/><path class="cls-28" d="M957.82,1461.32l-16.34.5-17.7.54s-40.87-45.51-63.8-118.46c-.53-1.69-1.1-3.41-1.69-5.15-12.55-36.58-38.56-82.51-52.27-124.08-2.18-6.62-4.14-12.85-5.9-18.75-.56-1.89-1.11-3.74-1.63-5.57-10.11-35.1-13-58.14-15.73-82.77l99,.8S897.73,1276.51,957.82,1461.32Z" transform="translate(-229.11 -406.96)"/><path class="cls-39" d="M867.89,1051.5c-.25,47.1,6.91,67.31,6.91,67.31s-42.38,21.53-92.75,5.68c-.59-.19-41.71-9.57-41.71-9.57.85-1.91,8.34-33.65,9.16-35.4,10.64-22.83,18.71-32.85,20-39.87a149.58,149.58,0,0,0,1.23-39.46,316.13,316.13,0,0,0-12.22-62c13.73-3.13,26.58-8.61,40.87-14,3.28,4.09,13.33,8.37,22,8.18,10-.22,13.29-4.52,12.77-9.21,10.69,5.95,19.22,11.57,19.22,11.57,9.09,15.79,27.52,31.11,28.85,55.33C882.56,996.07,867.9,1050.18,867.89,1051.5Z" transform="translate(-229.11 -406.96)"/><path class="cls-18" d="M840.66,911s-40.83.67-40.86-24.76-5.31-42.48,20.76-44,31.14,8.19,33.22,16.68S851.29,910.2,840.66,911Z" transform="translate(-229.11 -406.96)"/><path class="cls-23" d="M839.15,841.66S828,871.5,810.82,875.91s-24.6-.18-24.6-.18A48.61,48.61,0,0,0,802.11,847S830.72,827.46,839.15,841.66Z" transform="translate(-229.11 -406.96)"/><path class="cls-23" d="M836.38,844.08s8.35,6.67,10.39,13.14,3,19.81,6.83,19.36c0,0,8.43-20.28-1-31.76C842.52,832.66,836.38,844.08,836.38,844.08Z" transform="translate(-229.11 -406.96)"/><path class="cls-18" d="M788.77,1486.91a45.35,45.35,0,0,1-2.13,19.26s-2.74,12.47,9.54,12.7,15.28-.93,13.89-8.57-4-20.86-4-20.86Z" transform="translate(-229.11 -406.96)"/><path class="cls-19" d="M811.69,1526.27H784.81c-1.1-5.53,1.33-17.32,1.74-19.59a3.36,3.36,0,0,1,.07-.38,1.13,1.13,0,0,1,0-.12c13.89,12.73,22.59-.33,22.59-.33l0,.07C811.29,1510.91,811.72,1524.32,811.69,1526.27Z" transform="translate(-229.11 -406.96)"/><path class="cls-18" d="M992.44,1511.55s-22.63-25.12-29.58-37.9L946,1482.27l37.62,35.32,8.8-1.15Z" transform="translate(-229.11 -406.96)"/><path class="cls-19" d="M1006.81,1526.27H978.34c-4.19,0-7.54-7-12.05-16-1.85-3.7-6-5.73-10.25-6.85l.11,22.83h-6.57l-6.05-24.14c-4-7.37-.32-14.05,2.5-19.86,3.28,0,12.11,2.24,28.82,21.07,5.5,6.19,11.56,8.39,17.59,8.21l.25.13C1006.58,1517.93,1006.81,1526.27,1006.81,1526.27Z" transform="translate(-229.11 -406.96)"/><path class="cls-27" d="M941.48,1461.82l-17.7.54s-40.87-45.51-63.8-118.46c-.53-1.69-1.1-3.41-1.69-5.15-12.55-36.58-38.56-82.51-52.27-124.08-2.18-6.62-4.14-12.85-5.9-18.75-.56-1.89-1.11-3.74-1.63-5.57l14.57-11.06s43.77,70.87,57.31,137.56C882.14,1374.78,929.28,1444.48,941.48,1461.82Z" transform="translate(-229.11 -406.96)"/><path class="cls-28" d="M814.58,1323.06c.25,32.43-1.39,107-5.61,137.86H793.3c-8.67,0-13-.12-13-.12-10.59-53.67-18.13-98.08-23.62-136.35-4.5-31.41-8.5-58.33-11.58-81.5-3.1-23.33-5.25-42.86-6-59.36-.11-2.6-.2-5.13-.25-7.58s-.07-4.86,0-7.19l85.52-8.34C823.23,1217.31,814.45,1304.21,814.58,1323.06Z" transform="translate(-229.11 -406.96)"/><path class="cls-27" d="M793.3,1460.92c-8.67,0-13-.12-13-.12-10.59-53.67-18.13-98.08-23.62-136.35-4.5-31.41-8.5-58.33-11.58-81.5-3.1-23.33-5.25-42.86-6-59.36l31.39,18.46s-20,7.07-12.39,60.56S782.66,1453.35,793.3,1460.92Z" transform="translate(-229.11 -406.96)"/><path class="cls-4" d="M797.34,1183.06s-6,21.77-26.87,19S720,1186.77,720,1186.77s8.9-28.15,20-65.12c13.41-44.77,16.74-107.68,24.57-144.08,2.19-10.2,17-13.51,17.51-19.61l17.29-33.55s25.79,57.87,27.18,72.46S797.34,1183.06,797.34,1183.06Z" transform="translate(-229.11 -406.96)"/><path class="cls-40" d="M782.76,1039.83c-.93,23.63-9.19,63.92-42.4,81.63-.12.07-.26.13-.39.19,13.41-44.77,13.23-87.71,21.06-124.11C778.88,993.82,783.27,1026.83,782.76,1039.83Z" transform="translate(-229.11 -406.96)"/><path class="cls-19" d="M998.42,1025.71h-32c0,.15,0,.76-.09,1.62-.13,2.9-.33,8.58-.29,9.11.45,6.79,5.17,10.53,9.74,12.32h0l.07,0a21.55,21.55,0,0,0,3.16,1,19.33,19.33,0,0,0,2.16.33,11.21,11.21,0,0,0,1.25.07,16,16,0,0,0,6.56-1.41,16.18,16.18,0,0,0,9.58-14.73v-6.29A16.82,16.82,0,0,0,998.42,1025.71Z" transform="translate(-229.11 -406.96)"/><path class="cls-20" d="M995.8,1025.71h-4.34a16.68,16.68,0,0,1,.13,2V1034A16.25,16.25,0,0,1,979,1049.75c-.45.1-.91.18-1.37.24a14,14,0,0,0,2.17.16,12.39,12.39,0,0,0,1.36-.07,15.29,15.29,0,0,0,5.19-1.34,16.34,16.34,0,0,0,7.23-6.38h0a16.14,16.14,0,0,0,1.61-3.59,15.83,15.83,0,0,0,.72-4.75v-6.29A16.69,16.69,0,0,0,995.8,1025.71Z" transform="translate(-229.11 -406.96)"/><rect class="cls-19" x="975.83" y="1048.74" width="13.17" height="1.97" transform="translate(1735.73 1692.49) rotate(180)"/><path class="cls-18" d="M746.3,1092.28s14.89-3.22,18.72,1,6,11,2.15,13.38-14.9-4.14-18.88-1.51c-2.85,1.88-3.76,6.67-6.62,5s-5.89-12.65-5.89-12.65Z" transform="translate(-229.11 -406.96)"/><path class="cls-4" d="M799.34,924.41s-40.18,1.76-49.84,10.73-67.49,78.28-68.44,96.44,50.66,69.78,50.66,69.78,14.34-3.46,20.55-12.48c0,0-32-57.1-30.11-59.59s56.16-46.94,60.6-37.08C786.6,1000.71,799.34,924.41,799.34,924.41Z" transform="translate(-229.11 -406.96)"/><path class="cls-4" d="M952.21,1032.37s-45.88,15.3-51.62,14S886.67,983,882.24,961.64c-5.7-27.44-27.45-32.9-27.45-32.9l-20.63-5.52s23.62,58.36,24.32,70.17,2.77,193.15,2.77,193.15-1.39,8.34,14.59,4.86,20.15-7,20.15-7-6.92-50.69-10.18-95.69c16.28-2.78,68.63-29.31,68.63-29.31C962.56,1046.69,952.21,1032.37,952.21,1032.37Z" transform="translate(-229.11 -406.96)"/><path class="cls-41" d="M1080.45,1228.13l-8.36,47.35h0L1049,1406.28l-20.63,116.92a3.77,3.77,0,0,1-3.74,3.07,2.64,2.64,0,0,1-2.66-3l17.79-132.54,19-141.78,2.87-21.39Z" transform="translate(-229.11 -406.96)"/><path class="cls-41" d="M1171.8,1228.13l-8.36,47.35h0l-23.08,130.79-20.63,116.92a3.76,3.76,0,0,1-3.73,3.07,2.64,2.64,0,0,1-2.67-3l17.79-132.54,19-141.78,2.87-21.39Z" transform="translate(-229.11 -406.96)"/><path class="cls-14" d="M1072.09,1275.48c1.1-20.34-13.29-26.49-13.29-26.49l2.87-21.39,18.78.53Z" transform="translate(-229.11 -406.96)"/><path class="cls-41" d="M1868.53,1526.27a3.77,3.77,0,0,1-3.74-3.07l-18.33-103.88-26.36-149.41-7.37-41.78,18.77-.53,3.26,24.25,22.87,170.44,13.57,101A2.65,2.65,0,0,1,1868.53,1526.27Z" transform="translate(-229.11 -406.96)"/><path class="cls-14" d="M1834.76,1251.85c-12.16,5.37-14.66,18.06-14.66,18.06l-7.37-41.78,18.77-.53Z" transform="translate(-229.11 -406.96)"/><path class="cls-41" d="M1973.8,1526.27a3.78,3.78,0,0,1-3.74-3.07l-18.32-103.88-26.37-149.41-7.37-41.78,18.78-.53,3.26,24.25,22.87,170.44,13.56,101A2.64,2.64,0,0,1,1973.8,1526.27Z" transform="translate(-229.11 -406.96)"/><path class="cls-14" d="M1940,1251.85c-12.17,5.37-14.67,18.06-14.67,18.06l-7.37-41.78,18.78-.53Z" transform="translate(-229.11 -406.96)"/><path class="cls-42" d="M762.43,804.77h979.72A16.24,16.24,0,0,1,1758.39,821v.34a16.24,16.24,0,0,1-16.24,16.24H762.43a16.23,16.23,0,0,1-16.23-16.23V821a16.23,16.23,0,0,1,16.23-16.23Z"/><path class="cls-19" d="M1186.18,1192c-1.52-.93-4.46-.57-6.59-.12v-3.09a15,15,0,0,0-.14-2h-32a16.85,16.85,0,0,0-.13,2v6.28a16.12,16.12,0,0,0,28.24,10.64h0s7.61-1.88,10-4.72S1188.72,1193.56,1186.18,1192Zm-1.69,5.81c-.81,2.09-4.44,3.21-6.23,3.65a16.28,16.28,0,0,0,1.29-5.31c1.1-1.52,2.85-2.4,4.13-2.17S1185.51,1195.16,1184.49,1197.8Z" transform="translate(-229.11 -406.96)"/><path class="cls-20" d="M1149.93,1188.78v6.28a16.19,16.19,0,0,0,16.14,16.14,14,14,0,0,0,2.16-.16,16.18,16.18,0,0,1-14-16v-6.28a16.85,16.85,0,0,1,.13-2h-4.34A16.85,16.85,0,0,0,1149.93,1188.78Z" transform="translate(-229.11 -406.96)"/><rect class="cls-19" x="927.74" y="802.83" width="13.17" height="1.97"/><path class="cls-19" d="M1641.1,1192c-1.52-.93-4.46-.57-6.6-.12v-3.09a15,15,0,0,0-.13-2h-32a16.85,16.85,0,0,0-.13,2v6.28a16.12,16.12,0,0,0,28.24,10.64h0s7.62-1.88,10-4.72S1643.64,1193.56,1641.1,1192Zm-1.69,5.81c-.81,2.09-4.44,3.21-6.23,3.65a16,16,0,0,0,1.28-5.31c1.11-1.52,2.86-2.4,4.13-2.17S1640.43,1195.16,1639.41,1197.8Z" transform="translate(-229.11 -406.96)"/><path class="cls-20" d="M1604.85,1188.78v6.28A16.19,16.19,0,0,0,1621,1211.2a14,14,0,0,0,2.17-.16,16.18,16.18,0,0,1-14-16v-6.28a15,15,0,0,1,.13-2H1605A16.85,16.85,0,0,0,1604.85,1188.78Z" transform="translate(-229.11 -406.96)"/><rect class="cls-19" x="1382.66" y="802.83" width="13.17" height="1.97"/><path class="cls-3" d="M451.63,965.2v561.07h-148s-2.23-21.82-2.89-57c-.37-20.53-.24-45.62,1.2-73.6.13-2.28.25-4.6.39-6.93.75-12.82,1.77-26.22,3.13-40,.13-1.22.25-2.45.38-3.69,1.5-14.43,3.35-29.43,5.66-44.85,1.89-12.52,4.06-25.34,6.6-38.35.17-.91.35-1.83.53-2.75q2-9.93,4.22-20c.58-2.63,1.19-5.28,1.8-7.93,1.2-5.16,2.46-10.36,3.78-15.55q4.81-19.12,10.78-38.46c.4-1.3.81-2.63,1.21-4q2.72-8.59,5.66-17.25,4.5-13.12,9.58-26.26c2.11-5.49,4.33-11,6.61-16.44C383.9,1061.34,412.9,1010.61,451.63,965.2Z" transform="translate(-229.11 -406.96)"/><rect class="cls-43" y="1118.95" width="2726.7" height="9.73" rx="3.58"/></svg>