<svg id="animation" xmlns="http://www.w3.org/2000/svg" width="112" height="112" viewBox="0 0 112 112">
  <g id="animation-2" data-name="animation">
    <g id="Component_6_3" data-name="Component 6 – 3">
      <circle id="Ellipse_11" data-name="Ellipse 11" cx="56" cy="56" r="56" fill="#118dea"/>
    </g>
  </g>
  <g id="Component_10_1" data-name="Component 10 – 1" transform="translate(34 35)">
    <g id="Rectangle_16" data-name="Rectangle 16" transform="translate(0 37.296)" fill="none" stroke="#fff" stroke-linecap="round" stroke-width="1">
      <rect width="45" height="4" rx="2" stroke="none"/>
      <rect x="0.5" y="0.5" width="44" height="3" rx="1.5" fill="none"/>
    </g>
    <path id="Path_7" data-name="Path 7" d="M41.121-854.615a6.979,6.979,0,0,1,6.116-5.453c5.232-.59,7.3,5.453,7.3,5.453Z" transform="translate(-25 892.296)" fill="none" stroke="#fff" stroke-width="1"/>
    <line id="Line_5" data-name="Line 5" x1="8" y1="7" transform="translate(12.5 25.796)" fill="none" stroke="#fff" stroke-width="1"/>
    <g id="Ellipse_16" data-name="Ellipse 16" transform="translate(4 18.296)" fill="none" stroke="#fff" stroke-width="1">
      <circle cx="5" cy="5" r="5" stroke="none"/>
      <circle cx="5" cy="5" r="4.5" fill="none"/>
    </g>
    <line id="Line_6" data-name="Line 6" y1="12" x2="10" transform="translate(10.5 6.796)" fill="none" stroke="#fff" stroke-width="1"/>
    <path id="Path_8" data-name="Path 8" d="M69.133-885.5l-9.067,12.356s-7.012-6.489-5.642-10.6,2.509-5.134,4.493-6.3,6.345-.872,9.2,0,3.449,1.1,3.449,1.1Z" transform="translate(-31 894.296)" fill="none" stroke="#fff" stroke-linecap="round" stroke-linejoin="round" stroke-width="1"/>
    <path id="Path_9" data-name="Path 9" d="M54.607-884.248c-.744-.8-3.8-2.474-4.518-4.622a1.694,1.694,0,0,1,.359-1.5c1.82-2.491,3.192-4.255,3.958-3.871l1.286.769,4.854,3.1" transform="translate(-31 894.296)" fill="none" stroke="#fff" stroke-width="1"/>
  </g>
</svg>
