<svg id="branding" xmlns="http://www.w3.org/2000/svg" width="112" height="112" viewBox="0 0 112 112">
  <g id="branding-2" data-name="branding">
    <g id="Component_6_3" data-name="Component 6 – 3">
      <circle id="Ellipse_11" data-name="Ellipse 11" cx="56" cy="56" r="56" fill="#0f1c2a"/>
    </g>
  </g>
  <g id="Component_14_1" data-name="Component 14 – 1" transform="translate(28 25)">
    <g id="Component_13_1" data-name="Component 13 – 1" transform="translate(9 6)">
      <g id="Rectangle_17" data-name="Rectangle 17" transform="translate(11.5 37.52)" fill="none" stroke="#fff" stroke-width="1">
        <path d="M0,0H16a0,0,0,0,1,0,0V7a3,3,0,0,1-3,3H3A3,3,0,0,1,0,7V0A0,0,0,0,1,0,0Z" stroke="none"/>
        <path d="M1,.5H15a.5.5,0,0,1,.5.5V7A2.5,2.5,0,0,1,13,9.5H3A2.5,2.5,0,0,1,.5,7V1A.5.5,0,0,1,1,.5Z" fill="none"/>
      </g>
      <line id="Line_7" data-name="Line 7" x2="15" transform="translate(12 42.02)" fill="none" stroke="#fff" stroke-width="1"/>
      <line id="Line_8" data-name="Line 8" x2="6" transform="translate(17 48.02)" fill="none" stroke="#fff" stroke-linecap="round" stroke-width="1"/>
      <line id="Line_9" data-name="Line 9" x1="3" y2="3" transform="translate(2 32.02)" fill="none" stroke="#fff" stroke-linecap="round" stroke-width="1"/>
      <line id="Line_10" data-name="Line 10" x1="3" y2="3" transform="translate(36 32.02) rotate(90)" fill="none" stroke="#fff" stroke-linecap="round" stroke-width="1"/>
      <line id="Line_11" data-name="Line 11" x1="4" y1="3" transform="translate(0 10.02)" fill="none" stroke="#fff" stroke-linecap="round" stroke-width="1"/>
      <line id="Line_12" data-name="Line 12" x1="4" y1="3" transform="translate(37.5 9.52) rotate(90)" fill="none" stroke="#fff" stroke-linecap="round" stroke-width="1"/>
      <line id="Line_13" data-name="Line 13" x1="1" y1="5" transform="translate(11 0.02)" fill="none" stroke="#fff" stroke-linecap="round" stroke-width="1"/>
      <line id="Line_14" data-name="Line 14" x1="1" y1="5" transform="translate(26.885) rotate(20)" fill="none" stroke="#fff" stroke-linecap="round" stroke-width="1"/>
      <g id="Path_10" data-name="Path 10" transform="translate(4.5 5.52)" fill="#0f1c2a">
        <path d="M 11.49335956573486 32.35006332397461 C 9.555370330810547 32.35006332397461 8.21399974822998 32.12687301635742 7.271989822387695 31.64767456054688 C 4.810369968414307 30.40029525756836 3.922879934310913 28.00759506225586 2.694560050964355 24.69596481323242 C 2.572119951248169 24.36751556396484 2.442960023880005 24.03250503540039 2.306210041046143 23.67781448364258 C 1.459589958190918 21.48186492919922 0.5 18.99293518066406 0.5 16.5000057220459 C 0.5 12.21423435211182 1.964079976081848 8.187934875488281 4.622529983520508 5.162794589996338 C 7.264920234680176 2.155954837799072 10.77280044555664 0.5000048279762268 14.5 0.5000048279762268 C 18.22719955444336 0.5000048279762268 21.73508071899414 2.155954837799072 24.37747001647949 5.162794589996338 C 27.03591918945313 8.187934875488281 28.5 12.21423435211182 28.5 16.5000057220459 C 28.5 19.89000511169434 27.42336082458496 22.96204566955566 25.80680084228516 26.53170394897461 C 25.67124938964844 26.8327751159668 25.53672981262207 27.14874458312988 25.40663909912109 27.45431518554688 C 24.71635055541992 29.07566452026367 24.0025691986084 30.7522144317627 22.61240005493164 31.67702484130859 C 21.7550106048584 32.25070571899414 20.43272972106934 32.32419586181641 19.37643051147461 32.32421493530273 C 18.78153991699219 32.32423400878906 18.1501293182373 32.296875 17.53949928283691 32.27041625976563 C 16.92247009277344 32.24368667602539 16.2844295501709 32.21603393554688 15.67603015899658 32.21603393554688 C 15.1484899520874 32.21603393554688 14.535400390625 32.2449951171875 13.88632011413574 32.27566528320313 C 13.11213970184326 32.3122444152832 12.31161975860596 32.35006332397461 11.49335956573486 32.35006332397461 Z" stroke="none"/>
        <path d="M 14.5 0.9999961853027344 C 7.056070327758789 0.9999961853027344 1 7.953275680541992 1 16.5000057220459 C 1 18.8998851776123 1.941799163818359 21.34269523620605 2.772739410400391 23.49794387817383 C 2.909999847412109 23.85397338867188 3.039649963378906 24.19025421142578 3.163349151611328 24.52208518981934 C 4.352140426635742 27.72711563110352 5.2110595703125 30.04280471801758 7.498699188232422 31.20202445983887 C 8.355899810791016 31.63808441162109 9.662580490112305 31.85005569458008 11.49337959289551 31.85005569458008 C 12.29982948303223 31.85005569458008 13.0943603515625 31.81251525878906 13.86273002624512 31.77621459960938 C 14.5178804397583 31.74526405334473 15.13669013977051 31.71603393554688 15.67603015899658 31.71603393554688 C 16.29531860351563 31.71603393554688 16.93893051147461 31.74391555786133 17.56134986877441 31.7708854675293 C 18.16658973693848 31.79710388183594 18.79244041442871 31.82421493530273 19.37644004821777 31.82421493530273 C 20.28516960144043 31.82421493530273 21.58036041259766 31.76595497131348 22.33544921875 31.26073455810547 C 23.60111045837402 30.41874504089355 24.28511047363281 28.8121452331543 24.94659996032715 27.25844573974609 C 25.07768058776855 26.95055389404297 25.21322059631348 26.6321849822998 25.3513298034668 26.3254451751709 C 26.94116020202637 22.81480407714844 28 19.80042457580566 28 16.5000057220459 C 28 7.953275680541992 21.94392967224121 0.9999961853027344 14.5 0.9999961853027344 M 14.5 -3.814697265625e-06 C 22.50812911987305 -3.814697265625e-06 29 7.387304306030273 29 16.5000057220459 C 29 20.14277458190918 27.77383041381836 23.40017509460449 26.26226997375488 26.73797416687012 C 25.42230987548828 28.60368537902832 24.68894004821777 30.89612579345703 22.88933944702148 32.09332656860352 C 22.00452423095703 32.68535232543945 20.74519729614258 32.82421875 19.37643814086914 32.82421875 C 18.16781997680664 32.82421875 16.87396240234375 32.71603393554688 15.67603015899658 32.71603393554688 C 14.55589771270752 32.71603393554688 13.03173923492432 32.85005569458008 11.49337959289551 32.85005569458008 C 9.875261306762695 32.85005569458008 8.241424560546875 32.70178985595703 7.045289993286133 32.09332656860352 C 4.422029495239258 30.76404571533203 3.47007942199707 28.22457504272461 2.225770950317383 24.86984443664551 C 1.350929260253906 22.52311515808105 0 19.50177383422852 0 16.5000057220459 C 0 7.387304306030273 6.491870880126953 -3.814697265625e-06 14.5 -3.814697265625e-06 Z" stroke="none" fill="#fff"/>
      </g>
    </g>
    <g id="Component_12_1" data-name="Component 12 – 1">
      <path id="Path_11" data-name="Path 11" d="M864.533-291.428v6.009h5.612" transform="translate(-864.335 346.427)" fill="none" stroke="#fff" stroke-linecap="round" stroke-linejoin="round" stroke-width="1"/>
      <path id="Path_12" data-name="Path 12" d="M864.533-291.428v6.009h5.612" transform="translate(-285.419 -864.335) rotate(90)" fill="none" stroke="#fff" stroke-linecap="round" stroke-linejoin="round" stroke-width="1"/>
      <path id="Path_13" data-name="Path 13" d="M864.533-291.428v6.009h5.612" transform="translate(341.428 925.344) rotate(-90)" fill="none" stroke="#fff" stroke-linecap="round" stroke-linejoin="round" stroke-width="1"/>
      <path id="Path_14" data-name="Path 14" d="M864.533-291.428v6.009h5.612" transform="translate(920.344 -285.419) rotate(180)" fill="none" stroke="#fff" stroke-linecap="round" stroke-linejoin="round" stroke-width="1"/>
    </g>
  </g>
</svg>
