<svg id="illustration" xmlns="http://www.w3.org/2000/svg" width="112" height="112" viewBox="0 0 112 112">
  <circle id="Ellipse_11" data-name="Ellipse 11" cx="56" cy="56" r="56" fill="#5bd7f6"/>
  <g id="Component_7_1" data-name="Component 7 – 1" transform="translate(38 29)">
    <g id="Rectangle_10" data-name="Rectangle 10" transform="translate(14)" fill="none" stroke="#fff" stroke-width="1">
      <path d="M2,0H5A2,2,0,0,1,7,2V50a0,0,0,0,1,0,0H0a0,0,0,0,1,0,0V2A2,2,0,0,1,2,0Z" stroke="none"/>
      <path d="M2,.5H5A1.5,1.5,0,0,1,6.5,2V49a.5.5,0,0,1-.5.5H1A.5.5,0,0,1,.5,49V2A1.5,1.5,0,0,1,2,.5Z" fill="none"/>
    </g>
    <g id="Polygon_2" data-name="Polygon 2" fill="none">
      <path d="M3.5,0,7,8H0Z" stroke="none"/>
      <path d="M 3.5 2.494900226593018 L 1.529018878936768 7 L 5.470981121063232 7 L 3.5 2.494900226593018 M 3.5 0 L 7 8 L 0 8 L 3.5 0 Z" stroke="none" fill="#fff"/>
    </g>
    <line id="Line_2" data-name="Line 2" x2="2" y2="1" transform="translate(2.5 2.5)" fill="none" stroke="#fff" stroke-width="1"/>
    <g id="Rectangle_11" data-name="Rectangle 11" transform="translate(0 49)" fill="none" stroke="#fff" stroke-linecap="round" stroke-width="1">
      <path d="M0,0H7A0,0,0,0,1,7,0V2A2,2,0,0,1,5,4H2A2,2,0,0,1,0,2V0A0,0,0,0,1,0,0Z" stroke="none"/>
      <path d="M1,.5H6a.5.5,0,0,1,.5.5V2A1.5,1.5,0,0,1,5,3.5H2A1.5,1.5,0,0,1,.5,2V1A.5.5,0,0,1,1,.5Z" fill="none"/>
    </g>
    <g id="Rectangle_12" data-name="Rectangle 12" transform="translate(0 8)" fill="none" stroke="#fff" stroke-width="1">
      <rect width="7" height="42" stroke="none"/>
      <rect x="0.5" y="0.5" width="6" height="41" fill="none"/>
    </g>
    <path id="Path_5" data-name="Path 5" d="M40.6,70l-2.74,4.181H48.821L46.206,70Z" transform="translate(-26 -21)" fill="none" stroke="#fff" stroke-linecap="round" stroke-linejoin="round" stroke-width="1"/>
    <line id="Line_3" data-name="Line 3" x2="6" transform="translate(14.5 46.5)" fill="none" stroke="#fff" stroke-width="1"/>
    <g id="Rectangle_13" data-name="Rectangle 13" transform="translate(28 15)" fill="none" stroke="#fff" stroke-width="1">
      <path d="M0,0H7A0,0,0,0,1,7,0V36a2,2,0,0,1-2,2H2a2,2,0,0,1-2-2V0A0,0,0,0,1,0,0Z" stroke="none"/>
      <path d="M1,.5H6a.5.5,0,0,1,.5.5V36A1.5,1.5,0,0,1,5,37.5H2A1.5,1.5,0,0,1,.5,36V1A.5.5,0,0,1,1,.5Z" fill="none"/>
    </g>
    <path id="Path_6" data-name="Path 6" d="M60.386,36.465s1.605-2.9,1.549-5.053-4.478-6.632-4.478-6.632-4.422,4.478-4.365,6.632a13.846,13.846,0,0,0,1.7,5.053Z" transform="translate(-26 -21)" fill="none" stroke="#fff" stroke-width="1"/>
    <line id="Line_4" data-name="Line 4" y1="9" transform="translate(31.5 0.5)" fill="none" stroke="#fff" stroke-linecap="round" stroke-width="1"/>
  </g>
</svg>
